<?xml version="1.0" encoding="utf-8"?>
<!-- Generator: Adobe Illustrator 24.2.1, SVG Export Plug-In . SVG Version: 6.00 Build 0)  -->
<svg version="1.1" id="Layer_1" xmlns="http://www.w3.org/2000/svg" xmlns:xlink="http://www.w3.org/1999/xlink" x="0px" y="0px"
	 viewBox="0 0 474.3 201" enable-background="new 0 0 474.3 201" xml:space="preserve">
<g id="Horizontal-CMYK">
	<path fill="#004F6F" d="M435.3,144.9c-2.8,0-5.2-0.6-7.1-1.7c-1.9-1.2-3.2-2.7-3.8-4.7l6.4-3.6c0.9,2.2,2.4,3.3,4.7,3.3
		c1.7,0,2.5-0.4,2.5-1.3c0-0.2-0.1-0.5-0.2-0.7c-0.1-0.2-0.4-0.4-0.7-0.5c-0.3-0.1-0.7-0.3-0.9-0.3c-0.3-0.1-0.7-0.2-1.4-0.4
		c-0.6-0.2-1.1-0.3-1.5-0.4c-5.2-1.5-7.8-4.3-7.8-8.2c0-2.3,0.9-4.3,2.6-5.8c1.7-1.5,4-2.3,6.8-2.3c2.2,0,4.2,0.5,6,1.5
		c1.8,1,3,2.5,3.9,4.4l-6.2,3.6c-0.7-1.8-1.9-2.7-3.6-2.7c-0.6,0-1.1,0.1-1.5,0.4c-0.3,0.3-0.5,0.6-0.5,1c0,0.5,0.3,1,0.9,1.2
		c0.6,0.3,1.7,0.7,3.4,1.1c1.2,0.4,2.3,0.7,3.1,1c0.8,0.3,1.6,0.8,2.5,1.4c0.9,0.6,1.5,1.4,2,2.3c0.4,0.9,0.7,2,0.7,3.3
		c0,2.6-0.9,4.6-2.7,6.1C441,144.2,438.5,144.9,435.3,144.9L435.3,144.9z M348.3,129.2v3c0,3.7-1.2,6.7-3.6,9.1
		c-2.4,2.4-5.6,3.6-9.5,3.6c-4.1,0-7.4-1.3-10-3.8c-2.6-2.6-3.9-5.7-3.9-9.5c0-3.8,1.3-7,3.9-9.6c2.6-2.6,5.8-3.9,9.7-3.9
		c2.4,0,4.7,0.5,6.7,1.6c2,1.1,3.6,2.5,4.8,4.4l-6.3,3.6c-1-1.6-2.7-2.3-5-2.3c-1.9,0-3.4,0.6-4.5,1.8c-1.2,1.2-1.7,2.7-1.7,4.5
		c0,1.8,0.5,3.3,1.6,4.6c1.1,1.3,2.7,2,5,2c2.6,0,4.3-0.9,5.2-2.7H335v-6.2H348.3L348.3,129.2z M402,118.7v25.6h-7.5v-12.5l-5.8,9.6
		h-0.7l-5.8-9.6v12.5h-7.5v-25.6h7.5l6.2,10.4l6.2-10.4H402L402,118.7z M413.2,137.6h9.7v6.7h-17.2v-25.6h17v6.7h-9.5v2.8h8.6v6.6
		h-8.6V137.6L413.2,137.6z M365.2,144.3l-0.9-3.3h-7.5l-0.9,3.3h-8l8.3-25.6h8.7l8.3,25.6H365.2L365.2,144.3z M358.4,135.2h4.3
		l-2.2-7.9L358.4,135.2L358.4,135.2z M335,114.6c-3.9,0-7.2-1.3-9.8-3.8c-2.6-2.6-3.9-5.8-3.9-9.6c0-3.8,1.3-7,3.9-9.6
		c2.6-2.6,5.9-3.8,9.8-3.8c2.4,0,4.6,0.6,6.7,1.7c2,1.1,3.6,2.6,4.8,4.5l-6.5,3.7c-0.4-0.8-1.1-1.5-2-2c-0.9-0.5-1.9-0.7-3-0.7
		c-1.8,0-3.3,0.6-4.5,1.8c-1.1,1.2-1.7,2.7-1.7,4.5c0,1.8,0.6,3.3,1.7,4.5c1.1,1.2,2.6,1.8,4.5,1.8c1.1,0,2.1-0.2,3-0.7
		c0.9-0.5,1.5-1.2,2-2l6.5,3.7c-1.1,1.9-2.7,3.5-4.8,4.6C339.6,114,337.4,114.6,335,114.6L335,114.6z M387.1,88.3h7.5V114h-6
		l-8.2-11.7V114h-7.5V88.3h6l8.2,11.7V88.3L387.1,88.3z M413.5,114l-0.9-3.3H405l-0.9,3.3h-8l8.3-25.6h8.7l8.3,25.6H413.5L413.5,114
		z M363.4,114l-0.9-3.3H355l-0.9,3.3h-8l8.3-25.6h8.7l8.3,25.6H363.4L363.4,114z M433.8,88.3c3.6,0,6.6,1.2,9.1,3.7
		c2.4,2.5,3.6,5.5,3.6,9.1c0,3.6-1.2,6.7-3.6,9.1c-2.4,2.5-5.4,3.7-9.1,3.7H423V88.3H433.8L433.8,88.3z M463.5,114l-0.9-3.3h-7.5
		l-0.9,3.3h-8l8.3-25.6h8.7l8.3,25.6H463.5L463.5,114z M433.8,106.9c1.5,0,2.8-0.5,3.8-1.6c1-1.1,1.5-2.4,1.5-4.1
		c0-1.7-0.5-3.1-1.5-4.1c-1-1.1-2.2-1.6-3.8-1.6h-3v11.4H433.8L433.8,106.9z M356.6,104.8h4.3l-2.2-7.9L356.6,104.8L356.6,104.8z
		 M456.7,104.8h4.3l-2.2-7.9L456.7,104.8L456.7,104.8z M406.6,104.8h4.3l-2.2-7.9L406.6,104.8L406.6,104.8z M463.3,81.7
		c-2,1.7-4.5,2.5-7.7,2.5c-3.2,0-5.7-0.8-7.7-2.5c-2-1.7-3-3.9-3-6.6V58h7.5v16.3c0,1.9,1.1,2.9,3.2,2.9c2.1,0,3.2-1,3.2-2.9V58h7.5
		V75C466.3,77.8,465.3,80,463.3,81.7L463.3,81.7z M381.5,81.7c-2,1.7-4.5,2.5-7.7,2.5s-5.7-0.8-7.7-2.5c-2-1.7-3-3.9-3-6.6V58h7.5
		v16.3c0,1.9,1.1,2.9,3.2,2.9c2.1,0,3.2-1,3.2-2.9V58h7.5V75C384.5,77.8,383.5,80,381.5,81.7L381.5,81.7z M330.3,84.2
		c-4.4,0-7.5-1.8-9.2-5.3l6.3-3.6c0.6,1.2,1.6,1.8,2.9,1.8c1.5,0,2.3-0.7,2.3-2.1V58h7.5v17.2c0,2.8-0.8,5-2.5,6.6
		C335.8,83.4,333.4,84.2,330.3,84.2L330.3,84.2z M409.7,83.6h-8.3l-3.7-6.2l-3.8,6.2h-8.3l7.9-13L385.8,58h8.3l3.6,5.9l3.5-5.9h8.3
		l-7.7,12.7L409.7,83.6L409.7,83.6z M429.9,58c3.6,0,6.6,1.2,9.1,3.7c2.4,2.5,3.6,5.5,3.6,9.1c0,3.6-1.2,6.7-3.6,9.1
		c-2.4,2.5-5.4,3.7-9.1,3.7H419V58H429.9L429.9,58z M350.9,76.9h9.7v6.7h-17.2V58h17v6.7h-9.5v2.8h8.6V74h-8.6V76.9L350.9,76.9z
		 M429.9,76.5c1.5,0,2.8-0.5,3.8-1.6c1-1.1,1.5-2.4,1.5-4.1c0-1.7-0.5-3.1-1.5-4.1c-1-1.1-2.2-1.6-3.8-1.6h-3v11.4H429.9L429.9,76.5
		z"/>
	<g>
		<path fill="#00BFDE" d="M269.9,51.4c12,16.5,7.4,36,5.7,47.5c-0.8,5.8-2.7,19.8-3.5,25.6c-3.4,25,9.6,44.6,32.3,55.7
			c-16.1-20.3-11.9-34.6-8.9-55.7c1.3-9.2,2.1-13.4,3.1-22.6C300,88.9,305.2,62.2,269.9,51.4L269.9,51.4z"/>
		<path fill="#008EA8" d="M231.2,30.4c14.4,23.9,9.5,44.5,8.2,54c-1.9,13.7-3.9,28.8-4.7,34.7c-4.7,34.5,16.4,58.8,46.2,70.2
			c-21.3-20.5-21.6-43.6-17-73.3c0,0,2-14.4,3.8-27.6C270.6,66.7,266.2,39.6,231.2,30.4L231.2,30.4z"/>
		<path fill="#004F6F" d="M177.1,5.7c55.3,15,56.1,49,53.5,71.8c-0.9,8-5,37.6-5,37.6c-4.3,38.3,0.5,59,25.1,81.6
			c-51.8-19.2-61-53.6-57.8-86.6c1.7-17.2,2.4-23.5,4.3-41.1C200.3,38.2,193.8,22,177.1,5.7L177.1,5.7z"/>
	</g>
	<path fill="#004F6F" d="M3.8,142.9v-11.2l17.5-18.9c0.3-0.4,0.8-0.8,1.3-1.5c0.6-0.6,1-1,1.2-1.3c0.2-0.3,0.5-0.6,0.9-1
		c0.4-0.4,0.6-0.8,0.8-1.1c0.1-0.3,0.3-0.6,0.4-0.9c0.1-0.3,0.2-0.7,0.2-1c0-0.9-0.3-1.6-0.9-2.2c-0.6-0.6-1.5-0.9-2.7-0.9
		c-2.9,0-5,1.8-6.4,5.4L2.7,101c1.8-4.2,4.4-7.5,7.9-9.7C14.1,89.1,18,88,22.3,88c5.3,0,9.8,1.5,13.5,4.5s5.6,7.1,5.6,12.4
		c0,3.2-0.7,6-2.1,8.4c-1.4,2.4-3.6,5.3-6.6,8.7l-5.4,6.1h15.3v14.9H3.8z M82.7,136.5c-3.9,5.1-9.5,7.6-16.7,7.6
		c-7.2,0-12.8-2.5-16.7-7.6c-3.9-5.1-5.9-11.9-5.9-20.4c0-8.5,2-15.3,5.9-20.4C53.2,90.6,58.8,88,66,88c7.2,0,12.8,2.5,16.7,7.6
		c3.9,5.1,5.9,11.9,5.9,20.4C88.6,124.6,86.6,131.4,82.7,136.5z M58.7,116.1c0,8.8,2.4,13.2,7.3,13.2c4.9,0,7.3-4.4,7.3-13.2
		c0-8.8-2.4-13.2-7.3-13.2C61.1,102.9,58.7,107.3,58.7,116.1z M89,142.9v-11.2l17.5-18.9c0.3-0.4,0.8-0.8,1.3-1.5
		c0.6-0.6,1-1,1.2-1.3c0.2-0.3,0.5-0.6,0.9-1c0.4-0.4,0.6-0.8,0.8-1.1c0.1-0.3,0.3-0.6,0.4-0.9c0.1-0.3,0.2-0.7,0.2-1
		c0-0.9-0.3-1.6-0.9-2.2c-0.6-0.6-1.5-0.9-2.7-0.9c-2.9,0-5,1.8-6.4,5.4L87.8,101c1.8-4.2,4.4-7.5,7.9-9.7c3.5-2.2,7.4-3.3,11.7-3.3
		c5.3,0,9.8,1.5,13.5,4.5s5.6,7.1,5.6,12.4c0,3.2-0.7,6-2.1,8.4c-1.4,2.4-3.6,5.3-6.6,8.7l-5.4,6.1h15.3v14.9H89z M130,142.9v-11.2
		l17.5-18.9c0.3-0.4,0.8-0.8,1.3-1.5c0.6-0.6,1-1,1.2-1.3c0.2-0.3,0.5-0.6,0.9-1c0.4-0.4,0.6-0.8,0.8-1.1c0.1-0.3,0.3-0.6,0.4-0.9
		c0.1-0.3,0.2-0.7,0.2-1c0-0.9-0.3-1.6-0.9-2.2c-0.6-0.6-1.5-0.9-2.7-0.9c-2.9,0-5,1.8-6.4,5.4l-13.5-7.4c1.8-4.2,4.4-7.5,7.9-9.7
		c3.5-2.2,7.4-3.3,11.7-3.3c5.3,0,9.8,1.5,13.5,4.5s5.6,7.1,5.6,12.4c0,3.2-0.7,6-2.1,8.4c-1.4,2.4-3.6,5.3-6.6,8.7l-5.4,6.1h15.3
		v14.9H130z M18.5,57.3h7.7V84H20l-8.4-12.2V84H4V57.3h6.1l8.4,12.2V57.3z M30,57.3h7.7V84H30V57.3z M57,84L56,80.6h-7.7L47.4,84
		h-8.2l8.5-26.8h9L65.2,84H57z M50,74.5h4.4l-2.2-8.2L50,74.5z M92.4,68.2v3.2c0,3.8-1.2,7-3.7,9.5c-2.5,2.5-5.7,3.7-9.7,3.7
		c-4.2,0-7.6-1.3-10.3-4c-2.7-2.7-4-6-4-10c0-4,1.3-7.3,4-10c2.7-2.7,6-4,9.9-4c2.5,0,4.8,0.6,6.9,1.7c2.1,1.1,3.7,2.6,4.9,4.6
		L84,66.6c-1.1-1.6-2.8-2.4-5.1-2.4c-1.9,0-3.5,0.6-4.6,1.8c-1.2,1.2-1.8,2.8-1.8,4.7c0,1.8,0.5,3.4,1.6,4.8c1.1,1.4,2.8,2,5.1,2
		c2.7,0,4.4-0.9,5.3-2.8h-5.7v-6.5H92.4z M109.8,84l-0.9-3.4h-7.7l-0.9,3.4h-8.2l8.5-26.8h9l8.5,26.8H109.8z M102.8,74.5h4.4
		l-2.2-8.2L102.8,74.5z M133.4,84l-4.2-8.4h-1.9V84h-7.7V57.2h10.7c2.9,0,5.4,0.9,7.3,2.6c1.9,1.7,2.9,4,2.9,6.8
		c0,1.6-0.4,3-1.1,4.3c-0.7,1.3-1.7,2.3-3,3.1l5.3,10H133.4z M127.3,64.3v5h2.9c0.8,0,1.5-0.2,1.9-0.6c0.5-0.4,0.7-1,0.7-1.8
		c0-0.8-0.2-1.4-0.7-1.9c-0.5-0.4-1.1-0.7-1.9-0.7H127.3z M159.8,84l-0.9-3.4h-7.7l-0.9,3.4H142l8.5-26.8h9L168,84H159.8z
		 M152.8,74.5h4.4l-2.2-8.2L152.8,74.5z"/>
</g>
</svg>
